<svg xmlns="http://www.w3.org/2000/svg" viewBox="0 0 278.9 70.92"><defs><style>.cls-1{isolation:isolate;}.cls-2{fill:#e2001a;}.cls-3{mix-blend-mode:lighten;}</style></defs><title>logo_hepia</title><g class="cls-1"><g id="Calque_1" data-name="Calque 1"><rect class="cls-2" y="26.59" width="66.01" height="4.35"/><path d="M303.58,318.65h-1.39v-5.45h-3.88v5.45h-1.39v-11.3h1.39V312h3.88v-4.62h1.39Z" transform="translate(-239.85 -265.76)"/><path d="M305.59,312.73c0-1.93.82-2.79,2.85-2.79,2.58,0,2.58,1.55,2.58,2.44v4.73c0,.35,0,.68.41.68a.48.48,0,0,0,.32-.08v1a4.88,4.88,0,0,1-.78.08c-.51,0-1.14,0-1.2-1.09h0a2.4,2.4,0,0,1-2,1.22c-1.58,0-2.31-.95-2.31-2.47a2.2,2.2,0,0,1,1.6-2.34l1.79-.54c1-.3,1-.57,1-1.28s-.48-1.25-1.36-1.25a1.45,1.45,0,0,0-1.46,1.66v.08Zm4.1,1.3c-.49.52-1.66.63-2.26,1a1.35,1.35,0,0,0-.65,1.35c0,.86.3,1.46,1.2,1.46a1.73,1.73,0,0,0,1.71-1.62Z" transform="translate(-239.85 -265.76)"/><path d="M318.68,318.65h-1.27v-1h0a2.27,2.27,0,0,1-2.06,1.22c-2.23,0-2.23-1.69-2.23-2.69v-6h1.33V316c0,.65,0,1.71,1.25,1.71a1.64,1.64,0,0,0,1.68-1.71v-5.86h1.33Z" transform="translate(-239.85 -265.76)"/><path d="M321.16,307.7h1.33v2.47H324v1h-1.47v5.45c0,.68.17,1,.87,1a4.08,4.08,0,0,0,.59,0v1.09a5.46,5.46,0,0,1-1.08.1c-1.38,0-1.71-.57-1.71-1.68v-5.86h-1.23v-1h1.23Z" transform="translate(-239.85 -265.76)"/><path d="M326.08,314.57c0,1.3,0,3.26,1.63,3.26,1.27,0,1.44-1.33,1.44-2h1.33a2.87,2.87,0,0,1-2.85,3c-2.07,0-2.94-1.44-2.94-4.35,0-2.12.41-4.58,3-4.58s2.83,2.27,2.83,4.09v.54Zm3.07-1v-.46c0-.95-.3-2.07-1.47-2.07-1.39,0-1.55,1.71-1.55,2.22v.32Z" transform="translate(-239.85 -265.76)"/><path d="M337.6,314.57c0,1.3,0,3.26,1.63,3.26,1.27,0,1.44-1.33,1.44-2H342a2.87,2.87,0,0,1-2.85,3c-2.07,0-2.94-1.44-2.94-4.35,0-2.12.41-4.58,3-4.58s2.83,2.27,2.83,4.09v.54Zm3.07-1v-.46c0-.95-.3-2.07-1.47-2.07-1.39,0-1.55,1.71-1.55,2.22v.32Zm-1.22-6.78H341L339.29,309h-1Z" transform="translate(-239.85 -265.76)"/><path d="M347.82,312.75c0-.82-.33-1.76-1.35-1.76-.82,0-1.66.41-1.66,3.52,0,1.11,0,3.32,1.61,3.32,1.14,0,1.39-1.2,1.39-2.12h1.33c0,1.35-.66,3.17-2.79,3.17s-2.94-1.44-2.94-4.35c0-2.12.41-4.58,3-4.58a2.56,2.56,0,0,1,2.71,2.8Z" transform="translate(-239.85 -265.76)"/><path d="M353.52,309.95c2.45,0,3.06,2.07,3.06,4.46s-.62,4.46-3.06,4.46-3.06-2.07-3.06-4.46S351.08,309.95,353.52,309.95Zm1.66,4.46c0-1.84-.27-3.42-1.69-3.42s-1.63,1.58-1.63,3.42.27,3.42,1.63,3.42S355.18,316.25,355.18,314.41Z" transform="translate(-239.85 -265.76)"/><path d="M358.17,307.35h1.33v11.3h-1.33Z" transform="translate(-239.85 -265.76)"/><path d="M362.52,314.57c0,1.3,0,3.26,1.63,3.26,1.27,0,1.44-1.33,1.44-2h1.33a2.87,2.87,0,0,1-2.85,3c-2.07,0-2.94-1.44-2.94-4.35,0-2.12.41-4.58,3-4.58S367,312.21,367,314v.54Zm3.07-1v-.46c0-.95-.3-2.07-1.47-2.07-1.39,0-1.55,1.71-1.55,2.22v.32Z" transform="translate(-239.85 -265.76)"/><path d="M378.53,318.65h-1.27v-1h0a1.92,1.92,0,0,1-1.84,1.27c-2,0-2.77-1.79-2.77-4.46,0-1.77.29-4.46,2.68-4.46a2.06,2.06,0,0,1,1.87,1.19h0v-3.78h1.33Zm-3-.92c1.47,0,1.71-1.39,1.71-3.33,0-1.65-.29-3.32-1.71-3.32-1.23,0-1.55,1.3-1.55,3.32S374.34,317.74,375.57,317.74Z" transform="translate(-239.85 -265.76)"/><path d="M385.71,318.65h-1.27v-1h0a2.27,2.27,0,0,1-2.06,1.22c-2.23,0-2.23-1.69-2.23-2.69v-6h1.33V316c0,.65,0,1.71,1.25,1.71a1.64,1.64,0,0,0,1.68-1.71v-5.86h1.33Z" transform="translate(-239.85 -265.76)"/><path d="M391.94,310.17h1.27v1h0a1.92,1.92,0,0,1,1.84-1.27c2,0,2.77,1.79,2.77,4.31,0,1.93-.57,4.62-2.77,4.62a1.92,1.92,0,0,1-1.77-1.19h0v3.75h-1.33Zm3,7.57c1.23,0,1.55-1.3,1.55-3.48,0-1.87-.32-3.17-1.55-3.17-1.47,0-1.71,1.39-1.71,3.32C393.2,316.06,393.48,317.74,394.91,317.74Z" transform="translate(-239.85 -265.76)"/><path d="M399.42,312.73c0-1.93.82-2.79,2.85-2.79,2.58,0,2.58,1.55,2.58,2.44v4.73c0,.35,0,.68.41.68a.48.48,0,0,0,.32-.08v1a4.89,4.89,0,0,1-.78.08c-.51,0-1.14,0-1.2-1.09h0a2.4,2.4,0,0,1-2,1.22c-1.58,0-2.31-.95-2.31-2.47a2.2,2.2,0,0,1,1.6-2.34l1.79-.54c1-.3,1-.57,1-1.28s-.47-1.25-1.36-1.25a1.45,1.45,0,0,0-1.46,1.66v.08Zm4.1,1.3c-.49.52-1.66.63-2.26,1a1.35,1.35,0,0,0-.65,1.35c0,.86.3,1.46,1.2,1.46a1.73,1.73,0,0,0,1.71-1.62Z" transform="translate(-239.85 -265.76)"/><path d="M406.2,310.17h1.46l1.68,6.81h0l1.49-6.81h1.46l-2.45,9.05c-.32,1.17-.67,2.22-2.26,2.22-.52,0-.74,0-1,0v-1a5,5,0,0,0,.78,0,1,1,0,0,0,1-.82l.25-.74Z" transform="translate(-239.85 -265.76)"/><path d="M417.25,312.65c0-1.08-.29-1.66-1.25-1.66a1.22,1.22,0,0,0-1.38,1.3c0,1,1,1.19,2.09,1.54s2.07.71,2.07,2.39a2.48,2.48,0,0,1-2.74,2.66c-2.88,0-2.91-2.14-2.91-3h1.33c0,1,.29,2,1.58,2a1.33,1.33,0,0,0,1.41-1.41c0-1.14-1-1.38-2.07-1.73s-2.09-.65-2.09-2.41c0-1.58,1.23-2.34,2.71-2.34,2.47,0,2.56,1.71,2.58,2.71Z" transform="translate(-239.85 -265.76)"/><path d="M420.19,312.73c0-1.93.82-2.79,2.85-2.79,2.58,0,2.58,1.55,2.58,2.44v4.73c0,.35,0,.68.41.68a.49.49,0,0,0,.32-.08v1a4.9,4.9,0,0,1-.78.08c-.51,0-1.14,0-1.2-1.09h0a2.4,2.4,0,0,1-2,1.22c-1.58,0-2.31-.95-2.31-2.47a2.2,2.2,0,0,1,1.6-2.34l1.79-.54c1-.3,1-.57,1-1.28S423.87,311,423,311a1.45,1.45,0,0,0-1.46,1.66v.08Zm4.1,1.3c-.49.52-1.66.63-2.26,1a1.35,1.35,0,0,0-.65,1.35c0,.86.3,1.46,1.2,1.46a1.73,1.73,0,0,0,1.71-1.62Z" transform="translate(-239.85 -265.76)"/><path d="M433.11,318.12c0,2.53-1.17,3.45-2.88,3.45a2.46,2.46,0,0,1-2.79-2.12h1.33c.06.78.67,1.08,1.36,1.08,1.71,0,1.65-1.31,1.65-1.9v-1.11h0a2,2,0,0,1-1.92,1.14c-2.47,0-2.63-3.12-2.63-4.24,0-2.29.62-4.46,2.77-4.46a1.91,1.91,0,0,1,1.84,1.3h0v-1.08h1.27Zm-4.51-3.7c0,1.38.21,3.1,1.54,3.1s1.72-1.36,1.72-3.1-.29-3.32-1.71-3.32C428.91,311.09,428.6,312.38,428.6,314.41Z" transform="translate(-239.85 -265.76)"/><path d="M436.31,314.57c0,1.3,0,3.26,1.63,3.26,1.27,0,1.44-1.33,1.44-2h1.33a2.87,2.87,0,0,1-2.85,3c-2.07,0-2.95-1.44-2.95-4.35,0-2.12.41-4.58,3-4.58s2.83,2.27,2.83,4.09v.54Zm3.07-1v-.46c0-.95-.3-2.07-1.47-2.07-1.39,0-1.55,1.71-1.55,2.22v.32Z" transform="translate(-239.85 -265.76)"/><path d="M442.21,317h1.46v1.38c0,1.2-.09,2.28-1.46,2.64v-.74a1.12,1.12,0,0,0,.7-1.22v-.38h-.7Z" transform="translate(-239.85 -265.76)"/><path d="M454,318.65h-1.27v-1h0a1.92,1.92,0,0,1-1.84,1.27c-2,0-2.77-1.79-2.77-4.46,0-1.77.29-4.46,2.68-4.46a2.06,2.06,0,0,1,1.87,1.19h0v-3.78H454Zm-3-.92c1.47,0,1.71-1.39,1.71-3.33,0-1.65-.29-3.32-1.71-3.32-1.24,0-1.55,1.3-1.55,3.32S449.85,317.74,451.09,317.74Z" transform="translate(-239.85 -265.76)"/><path d="M319.95,325.16h1.46v1.38c0,1.2-.09,2.28-1.46,2.64v-.74a1.12,1.12,0,0,0,.7-1.22v-.38h-.7Z" transform="translate(-239.85 -265.76)"/><path d="M460.36,307.35h1.33v1.52h-1.33Zm0,2.82h1.33v8.48h-1.33Z" transform="translate(-239.85 -265.76)"/><path d="M463.86,310.17h1.27v1h0a2.27,2.27,0,0,1,2.06-1.22c2.23,0,2.23,1.7,2.23,2.69v6h-1.33V312.8c0-.65,0-1.71-1.25-1.71a1.64,1.64,0,0,0-1.68,1.71v5.86h-1.33Z" transform="translate(-239.85 -265.76)"/><path d="M477.13,318.12c0,2.53-1.17,3.45-2.88,3.45a2.46,2.46,0,0,1-2.79-2.12h1.33c.06.78.66,1.08,1.36,1.08,1.71,0,1.65-1.31,1.65-1.9v-1.11h0a2,2,0,0,1-1.92,1.14c-2.47,0-2.63-3.12-2.63-4.24,0-2.29.62-4.46,2.77-4.46a1.91,1.91,0,0,1,1.84,1.3h0v-1.08h1.27Zm-4.51-3.7c0,1.38.21,3.1,1.54,3.1s1.73-1.36,1.73-3.1-.29-3.32-1.71-3.32C472.93,311.09,472.61,312.38,472.61,314.41Z" transform="translate(-239.85 -265.76)"/><path d="M480.32,314.57c0,1.3,0,3.26,1.63,3.26,1.27,0,1.44-1.33,1.44-2h1.33a2.87,2.87,0,0,1-2.85,3c-2.07,0-2.94-1.44-2.94-4.35,0-2.12.41-4.58,3-4.58s2.83,2.27,2.83,4.09v.54Zm3.07-1v-.46c0-.95-.3-2.07-1.47-2.07-1.39,0-1.55,1.71-1.55,2.22v.32Zm-1.22-6.78h1.55L482,309h-1Z" transform="translate(-239.85 -265.76)"/><path d="M486.59,310.17h1.27v1h0a2.27,2.27,0,0,1,2.06-1.22c2.23,0,2.23,1.7,2.23,2.69v6h-1.33V312.8c0-.65,0-1.71-1.25-1.71a1.64,1.64,0,0,0-1.68,1.71v5.86h-1.33Z" transform="translate(-239.85 -265.76)"/><path d="M494.35,307.35h1.33v1.52h-1.33Zm0,2.82h1.33v8.48h-1.33Z" transform="translate(-239.85 -265.76)"/><path d="M498.79,314.57c0,1.3,0,3.26,1.63,3.26,1.27,0,1.44-1.33,1.44-2h1.33a2.87,2.87,0,0,1-2.85,3c-2.07,0-2.95-1.44-2.95-4.35,0-2.12.41-4.58,3-4.58s2.83,2.27,2.83,4.09v.54Zm3.07-1v-.46c0-.95-.3-2.07-1.47-2.07-1.39,0-1.55,1.71-1.55,2.22v.32Z" transform="translate(-239.85 -265.76)"/><path d="M504.89,310.17h1.33v1.27h0c.38-.81.89-1.49,1.84-1.49a1.36,1.36,0,0,1,.59.1v1.3a3.59,3.59,0,0,0-.71-.06,1.89,1.89,0,0,0-1.74,2v5.37h-1.33Z" transform="translate(-239.85 -265.76)"/><path d="M510,307.35h1.33v1.52H510Zm0,2.82h1.33v8.48H510Z" transform="translate(-239.85 -265.76)"/><path d="M514.28,314.57c0,1.3,0,3.26,1.63,3.26,1.27,0,1.44-1.33,1.44-2h1.33a2.87,2.87,0,0,1-2.85,3c-2.08,0-2.95-1.44-2.95-4.35,0-2.12.41-4.58,3-4.58s2.83,2.27,2.83,4.09v.54Zm3.07-1v-.46c0-.95-.3-2.07-1.47-2.07-1.39,0-1.55,1.71-1.55,2.22v.32Z" transform="translate(-239.85 -265.76)"/><path d="M298,332.38c0,1.3,0,3.26,1.63,3.26,1.27,0,1.44-1.33,1.44-2h1.33a2.87,2.87,0,0,1-2.85,3c-2.07,0-2.94-1.44-2.94-4.35,0-2.12.41-4.57,3-4.57s2.83,2.26,2.83,4.08v.54Zm3.07-1v-.46c0-1-.3-2.07-1.47-2.07-1.39,0-1.55,1.71-1.55,2.22v.31Z" transform="translate(-239.85 -265.76)"/><path d="M304.64,325.51H306V328h1.47v1H306v5.45c0,.68.17,1,.87,1a4.46,4.46,0,0,0,.59,0v1.09a5.68,5.68,0,0,1-1.08.09c-1.38,0-1.71-.57-1.71-1.68V329H303.4v-1h1.23Z" transform="translate(-239.85 -265.76)"/><path d="M317.76,336.46H316.5v-1h0a1.92,1.92,0,0,1-1.84,1.27c-2,0-2.77-1.79-2.77-4.46,0-1.77.29-4.46,2.68-4.46a2.06,2.06,0,0,1,1.87,1.19h0v-3.79h1.33Zm-3-.92c1.47,0,1.71-1.39,1.71-3.33,0-1.64-.29-3.32-1.71-3.32-1.24,0-1.55,1.3-1.55,3.32S313.57,335.54,314.8,335.54Z" transform="translate(-239.85 -265.76)"/><path d="M456.23,307.35h1.46v1.38c0,1.2-.1,2.28-1.46,2.64v-.74a1.12,1.12,0,0,0,.7-1.22V309h-.7Z" transform="translate(-239.85 -265.76)"/><path d="M323,330.54c0-1.93.82-2.79,2.85-2.79,2.58,0,2.58,1.55,2.58,2.44v4.73c0,.35,0,.68.41.68a.47.47,0,0,0,.32-.08v1a4.9,4.9,0,0,1-.78.08c-.51,0-1.14,0-1.2-1.09h0a2.4,2.4,0,0,1-2,1.22c-1.58,0-2.31-.95-2.31-2.47a2.2,2.2,0,0,1,1.6-2.34l1.79-.54c1-.3,1-.57,1-1.28s-.48-1.25-1.36-1.25a1.45,1.45,0,0,0-1.46,1.66v.08Zm4.1,1.3c-.49.52-1.66.63-2.26,1a1.36,1.36,0,0,0-.65,1.35c0,.85.3,1.46,1.2,1.46a1.73,1.73,0,0,0,1.71-1.62Z" transform="translate(-239.85 -265.76)"/><path d="M330.54,328h1.33v1.27h0c.38-.81.89-1.49,1.84-1.49a1.37,1.37,0,0,1,.59.09v1.3a3.63,3.63,0,0,0-.71-.06,1.89,1.89,0,0,0-1.74,2v5.37h-1.33Z" transform="translate(-239.85 -265.76)"/><path d="M339.28,330.56c0-.82-.33-1.76-1.35-1.76-.82,0-1.66.41-1.66,3.51,0,1.11,0,3.32,1.61,3.32,1.14,0,1.39-1.2,1.39-2.12h1.33c0,1.35-.66,3.17-2.79,3.17s-2.94-1.44-2.94-4.35c0-2.12.41-4.57,3-4.57a2.56,2.56,0,0,1,2.71,2.8Z" transform="translate(-239.85 -265.76)"/><path d="M342.34,325.16h1.33v3.79h0a2.45,2.45,0,0,1,2-1.19c2.18,0,2.18,1.69,2.18,2.69v6H346.6v-5.86c0-.65,0-1.71-1.25-1.71a1.64,1.64,0,0,0-1.68,1.71v5.86h-1.33Z" transform="translate(-239.85 -265.76)"/><path d="M349.85,325.16h1.33v1.52h-1.33Zm0,2.82h1.33v8.49h-1.33Z" transform="translate(-239.85 -265.76)"/><path d="M353.74,325.51h1.33V328h1.47v1h-1.47v5.45c0,.68.17,1,.87,1a4.45,4.45,0,0,0,.59,0v1.09a5.68,5.68,0,0,1-1.08.09c-1.38,0-1.71-.57-1.71-1.68V329h-1.23v-1h1.23Z" transform="translate(-239.85 -265.76)"/><path d="M358.9,332.38c0,1.3,0,3.26,1.63,3.26,1.27,0,1.44-1.33,1.44-2h1.33a2.87,2.87,0,0,1-2.85,3c-2.07,0-2.94-1.44-2.94-4.35,0-2.12.41-4.57,3-4.57s2.83,2.26,2.83,4.08v.54Zm3.07-1v-.46c0-1-.3-2.07-1.47-2.07-1.39,0-1.55,1.71-1.55,2.22v.31Z" transform="translate(-239.85 -265.76)"/><path d="M369.21,330.56c0-.82-.33-1.76-1.35-1.76-.82,0-1.66.41-1.66,3.51,0,1.11,0,3.32,1.61,3.32,1.14,0,1.39-1.2,1.39-2.12h1.33c0,1.35-.66,3.17-2.79,3.17s-2.94-1.44-2.94-4.35c0-2.12.41-4.57,3-4.57a2.55,2.55,0,0,1,2.71,2.8Z" transform="translate(-239.85 -265.76)"/><path d="M372.49,325.51h1.33V328h1.47v1h-1.47v5.45c0,.68.17,1,.87,1a4.45,4.45,0,0,0,.59,0v1.09a5.68,5.68,0,0,1-1.08.09c-1.38,0-1.71-.57-1.71-1.68V329h-1.23v-1h1.23Z" transform="translate(-239.85 -265.76)"/><path d="M382.13,336.46h-1.27v-1h0a2.27,2.27,0,0,1-2.06,1.22c-2.23,0-2.23-1.69-2.23-2.69v-6h1.33v5.86c0,.65,0,1.71,1.25,1.71a1.64,1.64,0,0,0,1.68-1.71V328h1.33Z" transform="translate(-239.85 -265.76)"/><path d="M384.22,328h1.33v1.27h0c.38-.81.89-1.49,1.84-1.49a1.37,1.37,0,0,1,.59.09v1.3a3.63,3.63,0,0,0-.71-.06,1.89,1.89,0,0,0-1.74,2v5.37h-1.33Z" transform="translate(-239.85 -265.76)"/><path d="M389.95,332.38c0,1.3,0,3.26,1.63,3.26,1.27,0,1.44-1.33,1.44-2h1.33a2.87,2.87,0,0,1-2.85,3c-2.07,0-2.94-1.44-2.94-4.35,0-2.12.41-4.57,3-4.57s2.83,2.26,2.83,4.08v.54Zm3.07-1v-.46c0-1-.3-2.07-1.47-2.07-1.39,0-1.55,1.71-1.55,2.22v.31Z" transform="translate(-239.85 -265.76)"/><path d="M405.7,336.46h-1.27v-1h0a1.92,1.92,0,0,1-1.84,1.27c-2,0-2.77-1.79-2.77-4.46,0-1.77.29-4.46,2.68-4.46a2.06,2.06,0,0,1,1.87,1.19h0v-3.79h1.33Zm-3-.92c1.47,0,1.71-1.39,1.71-3.33,0-1.64-.29-3.32-1.71-3.32-1.23,0-1.55,1.3-1.55,3.32S401.51,335.54,402.74,335.54Z" transform="translate(-239.85 -265.76)"/><path d="M408.57,332.38c0,1.3,0,3.26,1.63,3.26,1.27,0,1.44-1.33,1.44-2H413a2.87,2.87,0,0,1-2.85,3c-2.07,0-2.94-1.44-2.94-4.35,0-2.12.41-4.57,3-4.57S413,330,413,331.84v.54Zm3.07-1v-.46c0-1-.3-2.07-1.47-2.07-1.39,0-1.55,1.71-1.55,2.22v.31Z" transform="translate(-239.85 -265.76)"/><path d="M423.82,328.29c-.06-1.19-.51-2.21-1.88-2.21-1.93,0-2.18,2.12-2.18,4.73s.25,4.73,2.18,4.73,2.08-2.31,2.08-3.82h-2.23v-1.14h3.5v5.87h-1v-1.54h0a2.51,2.51,0,0,1-2.44,1.76c-2.94,0-3.47-2.83-3.47-5.87,0-2.85.52-5.87,3.64-5.87a3.11,3.11,0,0,1,3.34,3.36Z" transform="translate(-239.85 -265.76)"/><path d="M428.19,332.38c0,1.3,0,3.26,1.63,3.26,1.27,0,1.44-1.33,1.44-2h1.33a2.87,2.87,0,0,1-2.85,3c-2.07,0-2.94-1.44-2.94-4.35,0-2.12.41-4.57,3-4.57s2.83,2.26,2.83,4.08v.54Zm3.07-1v-.46c0-1-.3-2.07-1.47-2.07-1.39,0-1.55,1.71-1.55,2.22v.31Z" transform="translate(-239.85 -265.76)"/><path d="M434.13,328h1.27v1h0a2.27,2.27,0,0,1,2.06-1.22c2.23,0,2.23,1.69,2.23,2.69v6h-1.33v-5.86c0-.65,0-1.71-1.25-1.71a1.64,1.64,0,0,0-1.68,1.71v5.86h-1.33Z" transform="translate(-239.85 -265.76)"/><path d="M442.58,332.38c0,1.3,0,3.26,1.63,3.26,1.27,0,1.44-1.33,1.44-2H447a2.87,2.87,0,0,1-2.85,3c-2.07,0-2.95-1.44-2.95-4.35,0-2.12.41-4.57,3-4.57S447,330,447,331.84v.54Zm1.22-7.82,1.11,2.25H444l-1.71-2.25Zm1.85,6.78v-.46c0-1-.3-2.07-1.47-2.07-1.39,0-1.55,1.71-1.55,2.22v.31Z" transform="translate(-239.85 -265.76)"/><path d="M447.89,328h1.46l1.58,6.81h0l1.58-6.81H454l-2.3,8.49h-1.52Z" transform="translate(-239.85 -265.76)"/><path d="M456.24,332.38c0,1.3,0,3.26,1.63,3.26,1.27,0,1.44-1.33,1.44-2h1.33a2.87,2.87,0,0,1-2.85,3c-2.07,0-2.94-1.44-2.94-4.35,0-2.12.41-4.57,3-4.57s2.83,2.26,2.83,4.08v.54Zm3.07-1v-.46c0-1-.3-2.07-1.47-2.07-1.39,0-1.55,1.71-1.55,2.22v.31Z" transform="translate(-239.85 -265.76)"/><g class="cls-3"><path d="M299.94,265.94V271h0a3.06,3.06,0,0,1,2.87-1.51,3,3,0,0,1,2.22.79,3.56,3.56,0,0,1,.78,2.56v8.74h-3v-8.13a2,2,0,0,0-.31-1.28,1.23,1.23,0,0,0-1-.36q-1.6,0-1.6,2v7.82h-3V265.94Z" transform="translate(-239.85 -265.76)"/><path d="M335,277.09a6.61,6.61,0,0,0,.08,1,3.34,3.34,0,0,0,.25.88,1.66,1.66,0,0,0,.46.61,1.08,1.08,0,0,0,.7.23,1.23,1.23,0,0,0,1.12-.55,4,4,0,0,0,.48-1.67h2.72a4.73,4.73,0,0,1-1.1,3.13,4.18,4.18,0,0,1-3.18,1.07,5,5,0,0,1-2.56-.55,3.39,3.39,0,0,1-1.36-1.45,5.67,5.67,0,0,1-.54-2q-.1-1.12-.1-2.24a15.38,15.38,0,0,1,.16-2.28,5.5,5.5,0,0,1,.66-2,3.57,3.57,0,0,1,1.41-1.36,5.12,5.12,0,0,1,2.45-.5,4.77,4.77,0,0,1,2.16.43,3.26,3.26,0,0,1,1.33,1.21,5.05,5.05,0,0,1,.66,1.88,15.85,15.85,0,0,1,.18,2.46v.68h-6Zm3-3.93a3,3,0,0,0-.23-.88,1.23,1.23,0,0,0-.46-.55,1.4,1.4,0,0,0-.76-.19,1.28,1.28,0,0,0-.76.21,1.5,1.5,0,0,0-.47.55,2.73,2.73,0,0,0-.25.76,4.58,4.58,0,0,0-.08.83v.46h3.09Q338.07,273.68,338,273.16Z" transform="translate(-239.85 -265.76)"/><path d="M370,269.8V271h0a3.31,3.31,0,0,1,1.13-1.19,3,3,0,0,1,1.54-.36,3,3,0,0,1,2.74,1.46,9.63,9.63,0,0,1,.88,4.74,9.43,9.43,0,0,1-.88,4.71,3,3,0,0,1-2.74,1.42,2.79,2.79,0,0,1-2.54-1.34h0v4.89h-3V269.8Zm.43,8.8a1.25,1.25,0,0,0,1.3,1,1.24,1.24,0,0,0,1.28-1,14.42,14.42,0,0,0,0-5.81,1.24,1.24,0,0,0-1.28-1,1.25,1.25,0,0,0-1.3,1,14.39,14.39,0,0,0,0,5.81Z" transform="translate(-239.85 -265.76)"/><path d="M405.73,265.76v2.59h-3v-2.59Zm0,4v11.79h-3V269.8Z" transform="translate(-239.85 -265.76)"/><path d="M432.38,273.13a4,4,0,0,1,.33-1.72,3,3,0,0,1,.89-1.12,3.51,3.51,0,0,1,1.31-.61,6.72,6.72,0,0,1,1.61-.19,7.48,7.48,0,0,1,2.19.26,3,3,0,0,1,1.29.75,2.49,2.49,0,0,1,.62,1.15,6.06,6.06,0,0,1,.16,1.46v6.2a8.39,8.39,0,0,0,.08,1.29,4.52,4.52,0,0,0,.3,1h-2.89a2.51,2.51,0,0,1-.23-.6c-.05-.21-.1-.42-.14-.62h0a2.57,2.57,0,0,1-1.22,1.19,4.92,4.92,0,0,1-1.79.27,3,3,0,0,1-1.34-.27,2.25,2.25,0,0,1-.88-.76,3.36,3.36,0,0,1-.48-1.08,4.77,4.77,0,0,1-.15-1.19,5.17,5.17,0,0,1,.18-1.44,2.77,2.77,0,0,1,.54-1,2.93,2.93,0,0,1,.92-.71,7.36,7.36,0,0,1,1.35-.5l1.71-.46a1.82,1.82,0,0,0,.94-.48,1.35,1.35,0,0,0,.26-.9,1.62,1.62,0,0,0-.32-1.06,1.34,1.34,0,0,0-1.08-.38,1.3,1.3,0,0,0-1.05.42,1.68,1.68,0,0,0-.35,1.12v.33h-2.72Zm4.87,2.95a4.28,4.28,0,0,1-.64.21,2.33,2.33,0,0,0-1.32.66,1.86,1.86,0,0,0-.39,1.25,2.38,2.38,0,0,0,.26,1.16.92.92,0,0,0,.88.48,2.18,2.18,0,0,0,.63-.1,1.79,1.79,0,0,0,.6-.32,1.68,1.68,0,0,0,.45-.57,1.83,1.83,0,0,0,.17-.83v-2.32A2.7,2.7,0,0,1,437.25,276.07Z" transform="translate(-239.85 -265.76)"/></g></g></g></svg>